<?xml version="1.0" standalone="no"?>
<!DOCTYPE svg PUBLIC "-//W3C//DTD SVG 20010904//EN"
 "http://www.w3.org/TR/2001/REC-SVG-20010904/DTD/svg10.dtd">
<svg version="1.0" xmlns="http://www.w3.org/2000/svg"
 width="1644.000000pt" height="410.000000pt" viewBox="0 0 1644.000000 410.000000"
 preserveAspectRatio="xMidYMid meet">

<g transform="translate(0.000000,410.000000) scale(0.100000,-0.100000)"
fill="#e50914" stroke="none">
<path d="M66 4038 c-6 -57 -9 -3948 -2 -3948 2 0 129 27 283 60 153 34 290 63
306 67 l27 6 1 141 c1 77 5 469 8 871 l6 730 56 7 c128 16 546 58 576 58 l34
0 -3 -835 c-2 -459 1 -835 5 -835 12 0 549 100 582 109 l30 7 7 740 c3 406 8
1219 10 1807 l4 1067 -312 0 -312 0 -7 -759 -7 -759 -82 -7 c-44 -4 -179 -15
-299 -26 -120 -10 -234 -19 -253 -19 l-34 0 0 785 0 785 -309 0 -308 0 -7 -52z"/>
<path d="M3432 4038 c-17 -29 -90 -174 -162 -323 -262 -535 -481 -989 -551
-1138 -40 -84 -109 -231 -154 -327 -45 -96 -124 -265 -174 -376 l-91 -200 0
-245 c0 -135 2 -248 5 -251 3 -2 159 15 347 39 426 53 773 93 816 93 l32 0 0
-305 0 -305 38 5 c20 3 158 21 305 40 147 19 272 37 277 40 6 4 10 124 10 300
l0 294 58 6 c147 15 224 25 232 30 6 4 10 101 10 236 l0 231 -27 -6 c-16 -3
-83 -8 -150 -12 l-121 -6 5 1116 6 1116 -341 0 -341 0 -29 -52z m74 -1575 c-4
-362 -8 -658 -9 -659 -5 -6 -608 -56 -612 -52 -6 6 85 213 442 998 140 306
170 370 180 370 3 0 3 -296 -1 -657z"/>
<path d="M4756 4028 c-5 -52 -26 -3178 -21 -3185 1 -2 414 36 582 53 l52 5 3
674 c2 370 7 677 11 682 15 14 387 10 431 -6 55 -19 110 -73 137 -134 24 -52
24 -55 30 -537 7 -499 5 -484 46 -613 4 -12 16 -17 38 -17 63 0 490 20 551 26
l61 5 -24 60 c-34 85 -42 205 -43 636 0 276 -4 390 -14 445 -43 223 -125 331
-309 404 l-81 32 75 34 c41 19 97 53 125 76 67 53 136 158 169 256 57 171 58
557 1 724 -76 224 -233 348 -526 414 -90 20 -127 22 -692 25 l-596 4 -6 -63z
m1016 -399 c108 -23 165 -72 195 -166 20 -67 19 -448 -2 -519 -46 -155 -135
-201 -410 -214 -93 -5 -172 -6 -175 -4 -6 7 0 896 7 907 7 11 326 8 385 -4z"/>
<path d="M7057 4043 c-4 -27 -7 -723 -8 -1548 l-2 -1500 259 3 c573 8 908 20
1004 37 340 58 539 218 617 495 17 61 18 127 18 1015 0 1059 4 996 -70 1150
-102 213 -321 346 -635 384 -50 7 -309 11 -631 11 l-546 0 -6 -47z m1126 -426
c31 -16 69 -44 83 -62 55 -72 54 -56 54 -1000 0 -961 1 -939 -62 -1011 -67
-76 -142 -94 -393 -94 l-185 0 0 1101 0 1101 223 -4 c220 -3 222 -3 280 -31z"/>
<path d="M9375 4018 c-4 -40 -3 -737 2 -1548 l8 -1475 135 -6 c74 -4 215 -10
313 -14 l177 -7 0 678 0 677 298 -6 c163 -4 345 -10 405 -13 l107 -7 0 225 0
225 -102 7 c-57 3 -239 9 -405 13 l-301 6 -7 101 c-7 110 -3 761 5 769 3 3
225 1 493 -3 269 -4 500 -5 513 -2 l24 4 0 224 0 224 -829 0 -829 0 -7 -72z"/>
<path d="M11347 4043 c-6 -49 10 -3153 16 -3159 2 -2 233 -26 513 -54 280 -28
648 -68 819 -90 170 -22 316 -40 323 -40 11 0 13 43 10 234 -2 129 -6 237 -9
241 -8 8 -650 79 -865 96 l-161 12 -6 240 c-4 132 -7 520 -7 862 0 342 -3 865
-7 1163 l-6 542 -307 0 -307 0 -6 -47z"/>
<path d="M13317 4048 c-4 -41 13 -3380 18 -3386 4 -4 577 -92 603 -92 l24 0
-6 928 c-4 510 -9 1302 -12 1760 l-6 832 -308 0 -308 0 -5 -42z"/>
<path d="M14309 4013 c16 -43 91 -235 166 -428 75 -192 149 -384 165 -425 15
-41 96 -255 179 -475 107 -282 150 -407 146 -424 -8 -33 -261 -663 -500 -1246
-108 -264 -197 -484 -198 -489 -1 -5 59 -20 133 -32 74 -13 205 -37 290 -52
128 -24 156 -27 163 -15 11 18 369 955 449 1176 5 15 14 27 18 27 8 0 208
-602 400 -1207 52 -165 64 -194 83 -198 12 -3 150 -32 307 -65 157 -33 295
-62 307 -65 20 -5 4 49 -182 602 -180 537 -384 1130 -487 1413 l-34 95 118
315 c183 488 568 1550 568 1566 0 3 -133 3 -296 2 l-296 -3 -83 -235 c-216
-617 -343 -971 -350 -978 -3 -3 -7 -3 -9 -1 -2 2 -76 213 -164 469 -89 256
-184 528 -211 605 l-49 140 -331 3 -331 2 29 -77z"/>
</g>
</svg>
